<?xml version="1.0" encoding="UTF-8"?>
<svg viewBox="0 0 1 1" version="1.1" xmlns="http://www.w3.org/2000/svg" xmlns:svg="http://www.w3.org/2000/svg">
   <defs>
      <clipPath id="clip" clipPathUnits="objectBoundingBox">
         <path d="
         M -0.2 -0.2 
         L 1.2 -0.2 
         L 1.2 0.72 
         L 0.855 0.72 
         C 0.815,0.72 0.785,0.74 0.75,0.77  
         C 0.715,0.8 0.68,0.825 0.64,0.825  
         L 0.36 0.825 
         C 0.32,0.825 0.285,0.8 0.25,0.77 
         C 0.215,0.74 0.185,0.72 0.145,0.72 
         L -0.2 0.72 
         Z"/>
      </clipPath>
    </defs>
    <path style="fill:#FF33EF" d="
         M -0.2 -0.2 
         L 1.2 -0.2 
         L 1.2 0.72 
         L 0.855 0.72 
         C 0.815,0.72 0.785,0.74 0.75,0.77  
         C 0.715,0.8 0.68,0.825 0.64,0.825  
         L 0.36 0.825 
         C 0.32,0.825 0.285,0.8 0.25,0.77 
         C 0.215,0.74 0.185,0.72 0.145,0.72 
         L -0.2 0.72 
         Z"/>
</svg>
