<?xml version="1.0" encoding="UTF-8"?>
<svg viewBox="0 0 1 1" version="1.1" xmlns="http://www.w3.org/2000/svg" xmlns:svg="http://www.w3.org/2000/svg">
   <defs>
      <clipPath id="clip" clipPathUnits="objectBoundingBox">
         <path d="
         m 0.5,0 
         C 0.6,0 0.87,0 0.94,0.014
         C 1,0.026 1,0.12 1,0.5 
         C 1,0.88 1,0.974 0.94,0.986 
         C 0.87,1 0.6,1 0.5,1 
         C 0.4,1 0.13,1 0.06,0.986 
         C 0,0.974 0,0.88 0,0.5 
         C 0,0.12 0,0.026 0.06,0.014 
         C 0.13,0 0.4,0 0.5,0 
         Z"/>
      </clipPath>
    </defs>
    <path style="fill:#FF33EF" d="
         m 0.5,0 
         C 0.6,0 0.87,0 0.94,0.014
         C 1,0.026 1,0.13 1,0.5 
         C 1,0.87 1,0.974 0.94,0.986 
         C 0.87,1 0.6,1 0.5,1 
         C 0.4,1 0.13,1 0.06,0.986 
         C 0,0.974 0,0.87 0,0.5 
         C 0,0.13 0,0.026 0.06,0.014 
         C 0.13,0 0.4,0 0.5,0 
         Z"/>
</svg>
