<?xml version="1.0" encoding="utf-8"?>
<!-- Generator: Adobe Illustrator 24.3.0, SVG Export Plug-In . SVG Version: 6.00 Build 0)  -->
<svg version="1.1"
	 id="svg2" xmlns:cc="http://creativecommons.org/ns#" xmlns:dc="http://purl.org/dc/elements/1.1/" xmlns:rdf="http://www.w3.org/1999/02/22-rdf-syntax-ns#" xmlns:svg="http://www.w3.org/2000/svg"
	 xmlns="http://www.w3.org/2000/svg" xmlns:xlink="http://www.w3.org/1999/xlink" x="0px" y="0px" viewBox="0 0 600 300"
	 style="enable-background:new 0 0 600 300;" xml:space="preserve">
<style type="text/css">
	.st0{fill:#FFFFFF;}
	.st1{font-family:'ArialMT';}
	.st2{font-size:22.1086px;}
	.st3{fill:none;stroke:#FFFFFF;stroke-width:1.0001;stroke-miterlimit:10.001;}
	.st4{fill:none;stroke:#FFFFFF;stroke-width:1.0001;stroke-miterlimit:4.0004;}
	.st5{enable-background:new    ;}
</style>
<text transform="matrix(1.0001 0 0 1 549.0479 97.478)" class="st0 st1 st2">速</text>
<text transform="matrix(1.0001 0 0 1 549.0479 97.478)" class="st3 st1 st2">速</text>
<text transform="matrix(1.0001 0 0 1 549.0479 97.478)" class="st0 st1 st2">速</text>
<text transform="matrix(1.0001 0 0 1 549.0479 97.478)" class="st4 st1 st2">速</text>
<path id="path4" class="st0" d="M490.3,70.1L504.5,85l-35.2,124.7l-18.4,15l51.8-0.7l-12.1-11.4l8.2-37.4l27.7,0.2L534,212
	l-11.8,12.8l63.6-0.5l-15.8-15L532.9,70.6L490.3,70.1L490.3,70.1z M513.1,125.2l9.8,34.6l-18.5-0.6L513.1,125.2L513.1,125.2z"/>
<path id="path6" class="st0" d="M409.2,72.5l-38.5-1.4l14.7,14.2l0.2,126.3l-19.8,15.6L417,225C506.6,208.2,491.6,69.4,409.2,72.5z
	 M416.1,84.8c30.2,1,47.3,103.7,1.1,126.5L416.1,84.8z"/>
<path id="path8" class="st0" d="M27.9,44.3L10.3,92.2L56.4,56l91.1,0.9L11.3,264l165.6,2.6l14.7-40.2l87.8-1l-1-69.8l-21.5,55
	l-27-0.1l0.2-55l15.1-1.5l14.6,16.6l-0.1-48.6l-14.9,15.7l-14.6-0.3V84.8l26.3-1.6l22.7,46.8l0.7-59.7L186,71.1l12.2,15.2l0.5,126
	l-43.8,39.1l-99.2,0.5l136-207.5L27.9,44.3z"/>
<path id="path10" class="st0" d="M281.1,71.7l65.9-1.1l-15.4,13.5l0.7,126l14.5-0.4l20.9-56.6l0.9,71.1l-88.5-0.3l19.3-13.6
	l-1.1-126.7L281.1,71.7z"/>
<path id="path14" class="st0" d="M358.8,40.2c-0.1-11.4,13.7-13.3,22.3-10.8l0.1,6.7c-1.4-6.1-8.1-6.8-13.2-5.5
	c-2.2,1.6-3.2,4.1-3.9,6.7c0.4,5.1,0.4,12.9,7.3,14c1.6-0.3,3.3-0.4,5-0.5l0.3-7.8c-1.1-0.7-2.1-1.4-3.2-2.1c5.4,1.4,5.3,1.1,10.4,0
	c-0.6,0.5-1.6,1.4-2.1,1.9v8.5C373.1,54.8,357.9,52.2,358.8,40.2L358.8,40.2z"/>
<path id="path16" class="st0" d="M416.1,29.1L429,44.3V30.9l-3-2c3.9,0.7,4.1,0.8,8.4,0.2l-3,1.9v21.8l-17.6-20.5v17.6l3.7,3
	c-4.8-1.2-5.1-1.4-9.3,0l3.2-3V30.8c-1.3-0.6-2-1.2-3.2-1.8C411.9,29.7,411.2,28.9,416.1,29.1z"/>
<path id="path18" class="st0" d="M489.8,28.5c-4.9,0.2-9.8,2.7-11.8,7.5c-0.2,1.3-0.4,2.7-0.6,4.1c-0.2,4.8,2.5,9.1,6.6,11.3
	c9.5,4.9,22.3-3.7,18.6-14.6C501.1,31,495.4,28.3,489.8,28.5z M489.1,30.1c10.4-0.6,11.7,19.5,1.3,21.4c-2.9-0.6-5-2.7-6.4-5.2
	c-0.4-1.3,0-2.9-1.1-3.9c-0.3-4.3,0.5-9,4-11.9C487.7,30.2,488.4,30.1,489.1,30.1z"/>
<path id="path20" class="st0" d="M229.9,29.2l17.4-0.1l1.6,6.4c-2.1-2.9-3.6-6.1-7.8-4.8l0.7,19.2c0.5,0.2,2.6,2.1,3.1,2.3
	c-6.5-1.1-6.4-1.1-12.6,0.1c1.2-0.7,2.3-1.4,3.6-1.9V30.6c-4.1-1-5.8,1.6-7.2,4.8L229.9,29.2L229.9,29.2z"/>
<path id="path22" class="st0" d="M249.8,28.9c5.2,0.7,5.4,0.7,11.3-0.1c-0.8,0.9-1.8,1.6-2.9,2l0.4,8.8l9.6,0.1v-8.8l-2.3-2.1
	c4.7,1.2,4.9,1.2,10.9,0.2l-3,1.6v19.6l2.5,2.1c-5.5-1-6.1-0.9-11.3,0.1l3.2-1.9v-9.2h-10.1l0.5,9.4c1.7,1.1,1.2,1,2.7,1.7
	c-5.4-1.5-5.5-1.5-10.9,0l1.7-2.2L252,30.4L249.8,28.9z"/>
<path id="path24" class="st0" d="M278.5,29c5.8,1.4,9.9,0.3,17.4,0.4c0,2.1,0.5,3.5,0.4,5.6c-2.2-4.5-1.7-4.5-6.1-4.6l-4.6,0.1v9
	l5.9-0.1l2.5-4.3c-0.6,4.9-0.7,4.8,0.2,9.9l-2.7-4.1l-5.9-0.2v10.5L292,51c4.3-1.2,4.6-2.3,5.9-5.9c0.2,2.3,0.2,4.6,0.2,6.9
	c-6.3-0.6-13.2-0.8-19.8,0.3l1.8-1.4V30.4C279.7,30.1,278.9,29.3,278.5,29z"/>
<path id="path26" class="st0" d="M313.5,28.8c5.4,0.8,5.9,0.9,11.5,0.1l-3.1,2.2l0.1,19.4c4.9,1.1,10.8,0.2,11.7-5.8
	c0.6,2.4,0.4,4.9,0.4,7.3c-7.8-0.1-13.6-1.3-20.3,0.3l2.9-2.4L316.6,31L313.5,28.8z"/>
<path id="path28" class="st0" d="M446.8,28.7c-5,0-5.9,1.2-10.2,0.3l2.7,2.1L439,50.7l-2.5,1.7c4.9-1.3,4.2,0.2,14-0.1
	c15.3-0.4,13.8-23.6-1.2-23.5C448.3,28.7,447.5,28.7,446.8,28.7z M447.4,29.9c10.1,0.2,11.8,14.9,4.9,20.2c-2.4,0.8-4.2,1.6-7.6,0.5
	c-0.4-6.7-0.1-13.3-0.1-20C445.3,30.5,446.7,30.1,447.4,29.9z"/>
<path id="path30" class="st0" d="M506.1,29.2c5.8,1.3,6.3,0,19.1,0.1c-0.1,2.1,0,4.3-0.1,6.4c-0.6-1.2-1.1-2.4-1.6-3.6
	c-0.5-0.4-1.5-1-2-1.4c-2.3-0.1-4.5-0.2-6.8-0.3c-0.3,3-0.2,6-0.2,9.1c3.8,0.7,6.5-0.6,8.2-4.1c-0.2,3.1-0.2,6.3,0,9.4
	c-1.7-3.7-4.7-4.8-8.6-4c0.3,3.3,0.5,6.6,0.5,9.9c0.5,0.4,1.4,1.2,1.9,1.7c-3.7-1.5-7-1-10.2,0l2.9-2.1l-0.3-19.4
	C507.9,30.4,507,29.8,506.1,29.2L506.1,29.2z"/>
<path id="path116" class="st0" d="M336.8,29c5.8,1.4,9.9,0.3,17.4,0.4c0,2.1,0.5,3.5,0.4,5.6c-2.2-4.5-1.7-4.5-6.1-4.6l-4.6,0.1v9
	l5.9-0.1l2.5-4.3c-0.6,4.9-0.7,4.8,0.2,9.9l-2.7-4.1l-5.9-0.2v10.5l6.4-0.2c4.3-1.2,4.6-2.3,5.9-5.9c0.2,2.3,0.2,4.6,0.2,6.9
	c-6.3-0.6-13.2-0.8-19.8,0.3l1.8-1.4V30.4C338,30.1,337.2,29.3,336.8,29z"/>
<path id="path118" class="st0" d="M386.7,29c5.8,1.4,9.9,0.3,17.4,0.4c0,2.1,0.5,3.5,0.4,5.6c-2.2-4.5-1.7-4.5-6.1-4.6l-4.6,0.1v9
	l5.9-0.1l2.5-4.3c-0.6,4.9-0.7,4.8,0.2,9.9l-2.7-4.1l-5.9-0.2v10.5l6.4-0.2c4.3-1.2,4.6-2.3,5.9-5.9c0.2,2.3,0.2,4.6,0.2,6.9
	c-6.3-0.6-13.2-0.8-19.8,0.3l1.8-1.4V30.4C387.9,30.1,387.1,29.3,386.7,29L386.7,29z"/>
<g class="st5">
	<path class="st0" d="M229.6,266.1c0,6.4-5,11.2-12.2,11.2c-5.7,0-9.5-2.1-12.6-6.4l8.1-8.6l-1.4,7.4c0,0,1.4,3.6,4.8,3.6
		c2.7,0,5.4-2.7,5.4-6.8c0-4.3-3.1-7-6.9-9.3c3.7-2.8,5.5-6.1,5.5-8.3c0-2.2-1.8-4.1-4.4-4.1c-2.7,0-5.2,2.9-7.7,7v-11.5l2.6,2.3
		c1.6-1.7,3.5-2.3,8-2.3c5.7,0,9.1,4,9.1,8.7c0,3.5-2.1,5.5-3.9,7.2C225.9,257.4,229.6,260.3,229.6,266.1z M222.2,253.2l1.5-0.7
		c1.7-2.4,1.5-5.6-1.3-7.7c1.4,2.8,1.1,4.6-0.3,6.9L222.2,253.2z M222.2,259.5c0,0,1.3,1.4,1.6,2.8l1.6,1.1v-1.9
		C225.4,261.5,224.5,260,222.2,259.5z M225.4,271v-1.9l-1.6,1.1c-0.3,1.5-1.6,2.9-1.6,2.9C224.5,272.5,225.4,271,225.4,271z
		 M226.7,266.3l-1.1-1.6l-1.1,1.6l1.1,1.5L226.7,266.3z"/>
	<path class="st0" d="M256.9,264.7c0,7.3-5,12.6-12,12.6c-5.7,0-8.9-2.1-11.9-6.4l8.1-8.6l-1.5,7.4c0,0,0.7,3.6,4.1,3.6
		c2.7,0,4.9-3.1,4.9-7.8c0-4.8-2.7-8.4-6.7-8.4c-3,0-5,1.5-7.1,3.4v-19.4h16.5l2.4-1.8v11.6l-4-6.1h-7v8.4c0,0,1.3-0.7,4-0.7
		C252.1,252.6,256.9,257.1,256.9,264.7z M239.8,252.9l-1.1-8.1l-1,8.1l1,1.6L239.8,252.9z M250.1,257.8c0,0,1.1,1.5,1.4,3l1.4,1.2
		l0.2-1.9C253,260.1,252.3,258.5,250.1,257.8z M253,269.6l-0.2-1.8l-1.4,1.2c-0.2,1.5-1.4,3-1.4,3C252.3,271.3,253,269.6,253,269.6z
		 M253.9,264.9l-1.1-1.6l-1.1,1.6l1.1,1.5L253.9,264.9z"/>
	<path class="st0" d="M273.2,252.5v21.1l3.1,2.7h-12.8l3-2.7v-21.1h-3.2l-3.5,8.1v-10.8h20.1v10.8l-3.5-8.1H273.2z"/>
	<path class="st0" d="M302.9,273.6l3.1,2.7h-12.2l3.1-2.7v-9.3h-7.1v9.3l3.2,2.7h-12.2l3.1-2.7v-21.1l-3.1-2.7h12.2l-3.2,2.7v8.6
		h7.1v-8.6l-3.1-2.7H306l-3.1,2.7V273.6z"/>
	<path class="st0" d="M331.8,276.3l3.6-2.7l-1.9-8.2h-6.9l-2.3,8.3l2.9,2.7h-11.2l3.9-3l8.2-29.2l-3.9-2.9h11.6l8.2,32.2l3.9,3
		H331.8z M332.6,261.8l-2.2-9.8l-2.9,9.8H332.6z M333.9,253.8l1.5,1.4l0.6-1.9l-3.2-8.8L333.9,253.8z M336.5,260.3l0.7-1.8l-1.5-1.4
		l-0.7,1.9L336.5,260.3z M338.4,263.7l-1.4-1.4l-0.6,1.9l3.3,8.8L338.4,263.7z"/>
	<path class="st0" d="M346.6,276.3l3.1-2.7v-21.1l-3.1-2.7h7.9l8.1,11.3v-8.6l-3.1-2.7h10.6l-3.2,2.7V277l-13.2-18v14.6l3.1,2.7
		H346.6z"/>
	<path class="st0" d="M371.2,276.3l3.1-2.7v-21.1l-3.1-2.7h7.9l8.1,11.3v-8.6l-3.1-2.7h10.7l-3.2,2.7V277l-13.2-18v14.6l3.1,2.7
		H371.2z"/>
	<path class="st0" d="M406.1,273.6l3.1,2.7h-12.8l3-2.7v-21.1l-3-2.7h12.8l-3.1,2.7V273.6z"/>
	<path class="st0" d="M409.8,249.8h11.9l-2.2,2l4.1,10.5l3.8-10.6l-2.1-1.8h8.3l-2.9,2.6l-8.9,24.8l-9.2-25L409.8,249.8z"/>
	<path class="st0" d="M442.4,253v8.3h2.6l2.7-3.4v9.9l-2.7-3.4h-2.6v8.8h5.5l3.8-8.8v12h-19l3.1-2.7v-21.1l-3.1-2.7h19v10l-4.1-6.8
		H442.4z"/>
	<path class="st0" d="M463.5,264.7v8.9l3.2,2.7h-12.8l3.1-2.7v-21.1l-3.1-2.7h11.1c7.7,0,11.7,2.6,11.7,7.2c0,5-3.5,6.2-6.9,6.9
		l6,9.7l3.3,2.7h-8.6L463.5,264.7z M464,252.5h-0.5v8.7h0.5c5,0,6.3-1.5,6.3-4.1C470.3,254.1,468.7,252.5,464,252.5z"/>
	<path class="st0" d="M497.1,269c0,4.8-4.2,8-9,8c-2.6,0-4.4-0.7-6.1-1.8l-2.2,1.8l0-11.7c2.9,6.2,5.3,8.6,8.1,8.6
		c2.1,0,4-1.5,4-3.7c0-2.5-2.5-3.8-5.4-5.4c-3.2-1.7-6.4-3.7-6.4-8.3c0-4.7,3.5-7.3,8.3-7.3c1.9,0,3.8,0.5,5.2,1.5l2.1-1.5v9.5
		c-1.6-4.8-4.3-6.5-6.9-6.5c-2.4,0-3.8,1-3.8,2.8c0,2.2,2.7,3.6,5.6,5.1C493.9,261.8,497.1,263.9,497.1,269z"/>
	<path class="st0" d="M511.2,274.1l-1.3-6h-5.2l-1.6,5.9l2.9,2.3h-10l3.3-2.7l6.2-21.1l-3.1-2.7h9.5l5.9,23.8l3,2.7h-11.8
		L511.2,274.1z M509.2,265l-1.7-7.5l-2,7.5H509.2z"/>
	<path class="st0" d="M529.4,264.7v8.9l3.2,2.7h-12.8l3.1-2.7v-21.1l-3.1-2.7h11.1c7.7,0,11.7,2.6,11.7,7.2c0,5-3.5,6.2-6.9,6.9
		l6,9.7l3.3,2.7h-8.6L529.4,264.7z M529.8,252.5h-0.5v8.7h0.5c5,0,6.3-1.5,6.3-4.1C536.2,254.1,534.6,252.5,529.8,252.5z"/>
	<path class="st0" d="M548.5,276.3l3-2.7v-9.1l-6-12l-3-2.7h12.1l-1.9,2.5l4,8.3l3.9-8.3l-1.8-2.5h8.4l-3.1,2.7l-5.8,11.8v9.2
		l3.1,2.7H548.5z"/>
</g>
</svg>
