<?xml version="1.0" encoding="UTF-8" standalone="no"?>
<svg xmlns:svg="http://www.w3.org/2000/svg" xmlns="http://www.w3.org/2000/svg" width="100" height="100" viewBox="0 0 26.458 26.458" version="1.1">
   <style>
      path{fill:#989898;}
   </style>
   <path
      d="M 10.242569,20.74087 Q 9.0064523,21.096465 8.5492586,19.369289 L 8.1936635,18.082373 q -0.050799,-0.22013 -0.2709296,-0.22013 H 4.5869132 q -0.2201303,0 -0.2709296,0.22013 L 3.9434554,19.369289 Q 3.4693286,21.096465 2.2501455,20.74087 1.0309623,20.385275 1.5558884,18.675032 L 4.214385,10.174616 q 0.4741268,-1.5409125 2.0150389,-1.5409125 1.5409121,0 2.0150389,1.5239795 l 2.6754302,8.517349 q 0.541859,1.710243 -0.677324,2.065838 z M 7.5332726,15.762539 q 0.084665,0 0.067732,-0.08467 L 6.2632901,10.564077 q -0.016933,-0.08467 -0.033866,0 l -1.3207818,5.113796 q -0.016933,0.08467 0.067732,0.08467 z"/>
   <path
      d="m 55.289062,32.759766 c -4.26666,0 -6.40039,2.240709 -6.40039,6.720703 v 32.255859 c 0,4.479996 1.408614,6.71875 4.224609,6.71875 2.858674,-0.04267 4.245498,-2.303207 4.160157,-6.783203 l -0.384766,-27.96875 c 0,-0.213344 0.04161,-0.320311 0.126953,-0.320313 0.08534,0 0.214105,0.277364 0.384766,0.832032 l 8.255859,20.353515 c 1.151997,3.925329 3.093554,5.886719 5.824219,5.886719 2.730662,0 4.694006,-1.941557 5.888672,-5.824219 l 8.703125,-20.351562 c 0.170655,-0.554668 0.299422,-0.832031 0.384765,-0.832031 0.08534,0 0.126953,0.106968 0.126953,0.320312 l -0.382812,27.904297 c -0.04267,4.480004 1.407566,6.740544 4.351562,6.783203 2.943995,0 4.416016,-2.238754 4.416016,-6.71875 V 39.480469 c 0,-4.479994 -2.24071,-6.720703 -6.720703,-6.720703 -4.05333,0 -6.676431,1.941556 -7.871094,5.824218 l -8.255859,18.94336 c -0.170658,0.554665 -0.299423,0.832031 -0.384766,0.832031 -0.04268,0 -0.149652,-0.277366 -0.320312,-0.832031 l -8,-18.94336 c -1.151997,-3.882662 -3.753311,-5.824218 -7.806641,-5.824218 z"
      transform="scale(0.26458)" />
</svg>
