<?xml version="1.0" encoding="UTF-8" standalone="no"?>
<svg xmlns:svg="http://www.w3.org/2000/svg" xmlns="http://www.w3.org/2000/svg" width="100" height="100" viewBox="0 0 26.458 26.458" version="1.1">
   <style>
      path{fill:#989898;}
   </style>
    <path
       d="m 4.9378211,8.6697507 c -1.1853171,0 -1.777647,0.5928466 -1.7776469,1.7781633 v 8.534255 c -1e-7,1.185317 0.4120071,1.778164 1.2360846,1.778164 0.8240776,0 1.2360848,-0.592847 1.2360848,-1.778164 v -2.438063 c 0,-0.05644 0.028304,-0.08475 0.084748,-0.08475 H 6.563541 c 1.0498521,0 1.8911594,-0.18084 2.5233283,-0.542079 0.6434578,-0.36124 1.1057927,-0.846632 1.3880107,-1.456224 0.293507,-0.609591 0.440278,-1.286835 0.440278,-2.031891 0,-1.196606 -0.338622,-2.122311 -1.0159453,-2.7770566 C 9.2218888,8.9973608 8.1667067,8.6697507 6.7330377,8.6697507 Z m 9.6861079,0 c -1.128874,0 -1.693416,0.5928466 -1.693416,1.7781633 v 8.534255 c 0,1.185317 0.372691,1.778164 1.117748,1.778164 0.756345,-0.01129 1.122755,-0.6099 1.100177,-1.795217 l -0.101285,-7.399455 c 0,-0.05644 0.01101,-0.08475 0.03359,-0.08475 0.02258,0 0.05665,0.07339 0.101801,0.220139 l 2.184335,5.384616 c 0.304796,1.038564 0.818493,1.558025 1.540972,1.558025 0.722479,0 1.24194,-0.513697 1.558025,-1.540972 l 2.302673,-5.384616 c 0.04516,-0.146754 0.07922,-0.220139 0.101801,-0.220139 0.02258,0 0.03359,0.0283 0.03359,0.08475 l -0.101284,7.382402 c -0.01129,1.185317 0.372414,1.783929 1.151336,1.795217 0.778923,0 1.16839,-0.592847 1.16839,-1.778164 v -8.534255 c 0,-1.1853167 -0.592847,-1.7781633 -1.778164,-1.7781633 -1.07243,0 -1.766449,0.5136972 -2.082534,1.5409713 l -2.184335,5.012551 c -0.04516,0.146754 -0.07922,0.220139 -0.101802,0.220139 -0.01129,0 -0.03959,-0.07339 -0.08475,-0.220139 l -2.11664,-5.012551 C 16.469362,9.1834479 15.78059,8.6697507 14.70816,8.6697507 Z M 5.7170917,10.718695 h 0.8635024 c 1.2304719,0 1.845859,0.592847 1.845859,1.778164 0,0.677324 -0.1866038,1.16848 -0.5591321,1.473276 -0.3725282,0.293507 -0.8862253,0.440278 -1.5409716,0.440278 H 5.7170917 c -0.056444,0 -0.084748,-0.0283 -0.084748,-0.08475 v -3.522221 c 0,-0.05644 0.028304,-0.08475 0.084748,-0.08475 z"/>
</svg>
