<?xml version="1.0" encoding="UTF-8" standalone="no"?>
<svg
   width="72.718002mm"
   height="34.673mm"
   version="1.1"
   viewBox="0 0 72.718 34.673"
   xmlns="http://www.w3.org/2000/svg"
   xmlns:svg="http://www.w3.org/2000/svg"
   xmlns:rdf="http://www.w3.org/1999/02/22-rdf-syntax-ns#"
   xmlns:cc="http://creativecommons.org/ns#"
   xmlns:dc="http://purl.org/dc/elements/1.1/">
  <g
     transform="translate(-75.415,-84.916)">
    <path
       d="m 115.0184,86.812 -6.1207,23.996 c 0,0 -4.6796,-18.012 -5.4409,-20.567 -0.76164,-2.559 -2.3283,-3.6802 -4.5505,-3.6802 -2.2228,0 -3.7924,1.1211 -4.5536,3.6802 -0.75812,2.5548 -5.4391,20.567 -5.4391,20.567 L 82.789,86.812 h -7.3748 c 0,0 7.0831,25.602 8.0458,28.568 0.74895,2.3142 2.5231,4.2062 5.153,4.2062 3.0071,0 4.4132,-2.1922 5.0645,-4.2062 0.64417,-2.0024 5.2289,-18.912 5.2289,-18.912 0,0 4.5847,16.91 5.2275,18.912 0.65053,2.014 2.057,4.2062 5.0631,4.2062 2.6321,0 4.403,-1.8919 5.1566,-4.2062 0.96062,-2.9651 8.0388,-28.568 8.0388,-28.568 z m 25.286,32.527 h 6.9818 V 96.756 h -6.9818 z M 139.62771,88.86 c 0,2.1766 1.8362,3.9434 4.0908,3.9434 2.346,0 4.1836,-1.7304 4.1836,-3.9434 0,-2.2137 -1.8376,-3.9479 -4.1836,-3.9479 -2.2546,0 -4.0908,1.7692 -4.0908,3.9479 m -13.51,30.479 h 6.9797 V 96.756 h -6.9797 z M 125.439,88.86 c 0,2.1766 1.8327,3.9434 4.0887,3.9434 2.3446,0 4.1857,-1.7304 4.1857,-3.9434 0,-2.2137 -1.8412,-3.9479 -4.1857,-3.9479 -2.256,0 -4.0887,1.7692 -4.0887,3.9479"
       fill="rgba(160,160,160,0.6)" />
  </g>
</svg>
