<?xml version="1.0" encoding="utf-8"?>
<!-- Generator: Adobe Illustrator 24.3.0, SVG Export Plug-In . SVG Version: 6.00 Build 0)  -->
<svg version="1.1" id="图层_1" xmlns="http://www.w3.org/2000/svg" xmlns:xlink="http://www.w3.org/1999/xlink" x="0px" y="0px"
	 viewBox="0 0 120.8 117.8" style="enable-background:new 0 0 120.8 117.8;" xml:space="preserve">
<style type="text/css">
	.st0{fill-rule:evenodd;clip-rule:evenodd;fill:#FFFFFF;}
	.st1{fill:#FFFFFF;}
</style>
<g id="图层_2_1_">
	<g id="Layer_1">
		<path class="st0" d="M60.4,14.1c-24.8,0-44.9,20.1-44.9,44.9c0,19.4,12.4,36.5,30.7,42.6c2.2,0.4,3.1-1,3.1-2.2
			c0-1.1,0-4.6-0.1-8.4c-12.5,2.7-15.1-5.3-15.1-5.3c-2-5.2-5-6.6-5-6.6c-4.1-2.8,0.3-2.7,0.3-2.7c4.5,0.3,6.9,4.6,6.9,4.6
			c4,6.9,10.5,4.9,13.1,3.7c0.4-2.9,1.6-4.9,2.9-6c-9.9-1.1-20.5-5-20.5-22.2c-0.1-4.5,1.6-8.8,4.6-12.1c-0.5-1.1-2-5.7,0.4-11.9
			c0,0,3.8-1.2,12.4,4.6c7.4-2,15.1-2,22.5,0c8.5-5.8,12.3-4.6,12.3-4.6c2.4,6.2,0.9,10.8,0.4,11.9c3,3.3,4.7,7.6,4.6,12.1
			c0,17.3-10.5,21.1-20.5,22.2c1.6,1.4,3,4.1,3,8.3c0,6,0,10.9,0,12.3c0,1.2,0.8,2.6,3.1,2.2c23.5-7.9,36.2-33.3,28.4-56.9
			C96.9,26.5,79.7,14.1,60.4,14.1z"/>
		<path class="st1" d="M32.5,78.6c-0.1,0.2-0.4,0.3-0.7,0.1c-0.3-0.1-0.5-0.5-0.4-0.7c0.1-0.2,0.5-0.3,0.7-0.1
			C32.4,78.1,32.6,78.4,32.5,78.6L32.5,78.6z"/>
		<path class="st1" d="M34.3,80.6c-0.2,0.2-0.6,0.1-0.9-0.2c-0.3-0.2-0.3-0.6-0.1-0.9c0.2-0.2,0.6-0.1,0.9,0.2
			C34.5,80,34.5,80.5,34.3,80.6z"/>
		<path class="st1" d="M36.1,83.2c-0.3,0.2-0.7,0-1-0.4c-0.3-0.4-0.3-0.9,0-1.1c0.3-0.2,0.7,0,1,0.4C36.3,82.5,36.4,83,36.1,83.2z"
			/>
		<path class="st1" d="M38.5,85.7c-0.4,0.3-0.9,0.2-1.2-0.2c0,0,0,0,0,0c-0.4-0.4-0.5-0.9-0.3-1.1s0.7-0.2,1.2,0.2
			C38.7,84.9,38.8,85.4,38.5,85.7L38.5,85.7z"/>
		<path class="st1" d="M41.9,87.2c-0.1,0.3-0.6,0.5-1.1,0.4c-0.5-0.1-0.8-0.6-0.7-0.9s0.6-0.5,1.1-0.4C41.6,86.4,42,86.8,41.9,87.2z
			"/>
		<path class="st1" d="M45.5,87.5c0,0.4-0.4,0.7-1,0.7c-0.5,0-1-0.3-1-0.7c0-0.4,0.4-0.7,1-0.7C45.1,86.8,45.5,87.1,45.5,87.5z"/>
		<path class="st1" d="M49,86.9c0.1,0.4-0.3,0.7-0.8,0.8c-0.5,0.1-1-0.1-1.1-0.5c-0.1-0.4,0.3-0.7,0.8-0.8
			C48.4,86.3,48.9,86.5,49,86.9z"/>
	</g>
</g>
</svg>
